<svg xmlns="http://www.w3.org/2000/svg" xmlns:xlink="http://www.w3.org/1999/xlink" version="1.1" id="Layer_1" x="0px" y="0px" width="100px" height="100px" viewBox="0 0 100 100" enable-background="new 0 0 100 100" xml:space="preserve" class="header-title-image">
<g>
	<path d="M84.818,89H17.181C15.027,89,13,87.503,13,85.348V29.64c0-1.492,0.99-2.853,2.331-3.507L49.246,9.624   c1.081-0.527,2.378-0.526,3.459,0.001l33.949,16.509C87.993,26.789,89,28.149,89,29.64v55.708C89,87.503,86.974,89,84.818,89z    M21,81h60V32.076L51.025,17.473L21,32.078V81z"/>
</g>
<g>
	<rect x="44" y="57" width="14" height="28"/>
	<path d="M62,85.098C62,87.253,60.253,89,58.098,89H44.902C42.747,89,41,87.253,41,85.098V56.902C41,54.747,42.747,53,44.902,53   h13.196C60.253,53,62,54.747,62,56.902V85.098z M48,81h6V61h-6V81z"/>
</g>
</svg>
